<svg width="16" height="16" viewBox="0 0 16 16" fill="none" xmlns="http://www.w3.org/2000/svg">
<path d="M13.3339 6.66671C13.3339 9.99537 9.64124 13.462 8.40124 14.5327C8.28572 14.6196 8.1451 14.6665 8.00057 14.6665C7.85604 14.6665 7.71542 14.6196 7.5999 14.5327C6.3599 13.462 2.66724 9.99537 2.66724 6.66671C2.66724 5.25222 3.22914 3.89567 4.22933 2.89547C5.22953 1.89528 6.58608 1.33337 8.00057 1.33337C9.41506 1.33337 10.7716 1.89528 11.7718 2.89547C12.772 3.89567 13.3339 5.25222 13.3339 6.66671Z" stroke="#3C3B3E" stroke-width="1.33" stroke-linecap="round" stroke-linejoin="round"/>
<path d="M8.00057 8.66671C9.10514 8.66671 10.0006 7.77128 10.0006 6.66671C10.0006 5.56214 9.10514 4.66671 8.00057 4.66671C6.896 4.66671 6.00057 5.56214 6.00057 6.66671C6.00057 7.77128 6.896 8.66671 8.00057 8.66671Z" stroke="#3C3B3E" stroke-width="1.33" stroke-linecap="round" stroke-linejoin="round"/>
</svg>
